<?xml version="1.0" encoding="utf-8"?>
<!-- Generator: Adobe Illustrator 25.0.0, SVG Export Plug-In . SVG Version: 6.00 Build 0)  -->
<svg version="1.1" id="Capa_1" xmlns="http://www.w3.org/2000/svg" xmlns:xlink="http://www.w3.org/1999/xlink" x="0px" y="0px"
	 viewBox="0 0 247.6 202.2" style="enable-background:new 0 0 247.6 202.2;" xml:space="preserve">
<style type="text/css">
	.st0{fill:#1D1D1B;}
	.st1{fill:none;stroke:#1D1D1B;stroke-miterlimit:10;}
	.st2{fill:#759FBC;}
	.st3{fill:url(#SVGID_1_);}
	.st4{fill:url(#SVGID_2_);}
	.st5{fill:#FFFFFF;}
	.st6{fill:url(#SVGID_3_);}
	.st7{fill:url(#SVGID_4_);}
	.st8{fill:#DADADA;}
	.st9{fill:none;stroke:#1D1D1B;stroke-width:0.75;stroke-miterlimit:10;}
	.st10{fill:#706F6F;}
</style>
<path class="st2" d="M111.4,59.7c23.7,0,43,19.2,43,43c0,23.7-19.2,43-43,43c-11.5,0-21.9-4.5-29.6-11.8c6,4,13.2,6.4,21,6.4
	c20.7,0,37.5-16.8,37.5-37.5c0-20.7-16.8-37.5-37.5-37.5c-7.8,0-15,2.4-21,6.4C89.5,64.2,99.9,59.7,111.4,59.7z"/>
<path class="st0" d="M122.6,45.9c64.4,0,116.7,5,116.7,5s-52.2,5-116.7,5s-116.7-5-116.7-5S58.2,45.9,122.6,45.9z M29.3,35.4
	c0,0,41.8,3.7,93.4,3.7s93.4-3.7,93.4-3.7s-41.8-3.7-93.4-3.7S29.3,35.4,29.3,35.4z M66.6,21.7c0,0,25.1,2.5,56,2.5s56-2.5,56-2.5
	s-25.1-2.5-56-2.5S66.6,21.7,66.6,21.7z M100.2,7.9c0,0,10,1.2,22.4,1.2S145,7.9,145,7.9s-10-1.2-22.4-1.2S100.2,7.9,100.2,7.9z"/>
<path class="st0" d="M122.6,159.3c-64.4,0-116.7-5-116.7-5s52.2-5,116.7-5s116.7,5,116.7,5S187.1,159.3,122.6,159.3z M216,169.8
	c0,0-41.8-3.7-93.4-3.7s-93.4,3.7-93.4,3.7s41.8,3.7,93.4,3.7S216,169.8,216,169.8z M178.6,183.6c0,0-25.1-2.5-56-2.5
	s-56,2.5-56,2.5s25.1,2.5,56,2.5S178.6,183.6,178.6,183.6z M145,197.3c0,0-10-1.2-22.4-1.2s-22.4,1.2-22.4,1.2s10,1.2,22.4,1.2
	S145,197.3,145,197.3z"/>
<path class="st0" d="M174.3,102.6c0,28.6-23.2,51.7-51.7,51.7c-17.2,0-32.5-8.4-41.9-21.3c7.7,7.6,18.3,12.3,30,12.3
	c23.6,0,42.7-19.1,42.7-42.7c0-23.6-19.1-42.7-42.7-42.7c-11.7,0-22.3,4.7-30,12.3c9.4-12.9,24.6-21.3,41.9-21.3
	C151.2,50.9,174.3,74.1,174.3,102.6z"/>
</svg>
