<?xml version="1.0" encoding="utf-8"?>
<!-- Generator: Adobe Illustrator 25.0.0, SVG Export Plug-In . SVG Version: 6.00 Build 0)  -->
<svg version="1.1" id="Capa_1" xmlns="http://www.w3.org/2000/svg" xmlns:xlink="http://www.w3.org/1999/xlink" x="0px" y="0px"
	 viewBox="0 0 324.2 90" style="enable-background:new 0 0 324.2 121.8;" xml:space="preserve">
<style type="text/css">
	.st0{fill:#1D1D1B;}
	.st1{fill:none;stroke:#1D1D1B;stroke-miterlimit:10;}
	.st2{fill:#759FBC;}
	.st3{fill:url(#SVGID_1_);}
	.st4{fill:url(#SVGID_2_);}
	.st5{fill:#FFFFFF;}
	.st6{fill:url(#SVGID_3_);}
	.st7{fill:url(#SVGID_4_);}
	.st8{fill:#DADADA;}
	.st9{fill:none;stroke:#1D1D1B;stroke-width:0.75;stroke-miterlimit:10;}
	.st10{fill:#706F6F;}
</style>
<path class="st2" d="M319.2,19.4c-4-3.5-9,1.6-14.3,0.9c-5.8-0.7-12-2.7-17.4,0.5c-4.1,2.5-6.8,4.3-8.9,8.1
	c-0.5-1.7-0.9,2.2-0.9,2.2c-0.4,0.7-1.6,2.9-1.8,3.6c0,0-0.7,0.7-0.7,0.8c-0.1,0.3-0.7,1.2-0.9,1.5c-1.9,4.4-3.4,6.6-7.2,9.2
	c-7,4.8-14.1,5.7-20.5,1c-3.2-2.3-5.9-5.7-7.8-10c-0.5-1-0.8-2.1-1.2-3.1c-2.4,4.7-1.6,10.5-1.7,16.5c3.8,4.9,6.4,7.9,11.6,9.1
	c5.8,1.4,12,0.4,17.5-3.5c4.3-2.9,7.6-7.1,9.9-12c0,0,0,0,0,0c0,0,0,0,0,0c0.4-0.9,0.8-1.7,1.1-2.6c1.7-4.4,4.6-8.3,8.6-10.8
	c0,0,0.1,0,0.1-0.1c6.8-4.1,14.9-4.2,21.5-1c3.2,1.6,6.1,4,8.2,7.2c0.5,0.8,0.9,1.5,1.3,2.3C318.2,35.5,319.4,24,319.2,19.4z"/>
<path class="st0" d="M319.2,19.4c-4-3.5-9-5.6-14.3-6.2c-5.8-0.7-12,0.5-17.3,3.7c-4.1,2.5-7.2,5.8-9.3,9.6c0,0,0,0,0,0
	c-0.4,0.7-0.7,1.3-1,2c0,0,0,0.1-0.1,0.1c-0.1,0.3-0.3,0.7-0.4,1c-1.9,4.4-4.8,8.3-8.6,10.9c-7,4.8-15.2,4.2-21.6-0.5
	c-3.2-2.3-5.9-5.7-7.8-10c-0.5-1-0.3-1.3-0.6-2.4c-2.4,4.7-4.4,9.6-4.5,15.6c3.8,4.9,8.7,8.1,13.9,9.3c5.8,1.4,12,0.4,17.5-3.5
	c4.3-2.9,7.6-7.1,9.9-12c0,0,0,0,0,0c0,0,0,0,0,0c0.4-0.9,0.8-1.7,1.1-2.6c1.7-4.4,4.6-8.3,8.6-10.8c0,0,0.1,0,0.1-0.1
	c6.8-4.1,14.9-4.2,21.5-1c3.2,1.6,6.1,4,8.2,7.2c0.5,0.8,0.9,1.5,1.3,2.3C318.3,28.4,319.4,24,319.2,19.4z"/>
<!-- <g>
	<path class="st0" d="M103.2,89.5c-46,0-83.3-3.6-83.3-3.6s37.3-3.6,83.3-3.6s83.3,3.6,83.3,3.6S149.2,89.5,103.2,89.5z M169.8,97.2
		c0,0-29.9-2.7-66.7-2.7c-36.8,0-66.7,2.7-66.7,2.7s29.9,2.7,66.7,2.7C140,100,169.8,97.2,169.8,97.2z M143.2,107.3
		c0,0-17.9-1.8-40-1.8c-22.1,0-40,1.8-40,1.8s17.9,1.8,40,1.8C125.3,109.1,143.2,107.3,143.2,107.3z M119.2,117.3
		c0,0-7.2-0.9-16-0.9s-16,0.9-16,0.9s7.2,0.9,16,0.9S119.2,117.3,119.2,117.3z"/>
</g> -->
<path class="st0" d="M227.1,44.9c-0.1-0.1-0.1-0.2-0.2-0.2c-2.3-2.9-5.2-4.9-8.9-6.3c0,0,0,0,0,0c-0.8-0.3-1.6-0.5-2.5-0.8l0,0
	c0,0-0.1,0-0.1,0c-1.2-0.6-2.4-1.3-3.3-2.3c0,0,0,0-0.1-0.1c0,0,0,0,0,0c-1.8-1.8-2.9-4.3-2.9-7c0-5.7,5-10.4,11.2-10.4
	c0.5,0,0.9,0,1.4,0.1c0.6,0.1,1.2,0.2,1.7,0.3c0.2,0,0.4,0.1,0.6,0.2c0.5,0.2,1.1,0.4,1.6,0.6c0.4,0.2,0.8,0.4,1.2,0.7
	c0.5,0.4,1,0.8,1.4,1.2c-0.1-0.1-0.2-0.2-0.3-0.3c-4.3-5.3-11.4-8.5-19.3-7.4c-8.8,1.2-15.7,7.9-17,16.2c-0.8,5.2,0.7,10.1,3.5,13.9
	c0.1,0.1,0.1,0.2,0.2,0.2c2.1,2.7,5,4.9,8.3,6.3c0.6,0.2,1.1,0.4,1.7,0.6c0.2,0,0.4,0.1,0.6,0.2c0.5,0.2,1.1,0.4,1.6,0.6
	c3.5,1.7,5.9,5.2,5.9,9.2c0,5.8-5,10.4-11.1,10.4c-1.7,0-3.3-0.4-4.7-1c0,0-0.1-0.1-0.1-0.1c0,0-0.1,0-0.1,0
	c-1.2-0.7-2.3-1.5-3.3-2.4c0,0,0,0,0,0c0,0-0.1,0-0.1-0.1c0,0,0.1,0.1,0.1,0.1c0,0,0.1,0.1,0.1,0.1c4.1,5.2,10.9,8.4,18.4,7.6
	c9.7-1,17.4-8.5,18.1-17.6C231.1,52.8,229.7,48.4,227.1,44.9z"/>
<path class="st0" d="M48.5,11.9c-4.3,0-8.4,2-11.7,5.4c-3.4-3.4-7.4-5.4-11.7-5.4C13.4,11.9,3.9,26.2,3.9,44
	c0,13.2,5.2,24.5,12.7,29.5c-2.9-4.1-4.8-9.9-4.8-16.4c0-12.3,6.5-22.2,14.6-22.2c0.6,0,1.2,0,1.8,0.2c3.3,0.6,6.3,2.9,8.5,6.3
	c2.2-3.4,5.2-5.7,8.5-6.3c0.6-0.1,1.2-0.2,1.8-0.2c8.1,0,14.6,9.9,14.6,22.2c0,6.5-1.8,12.4-4.8,16.5c7.5-4.9,12.8-16.3,12.8-29.5
	C69.6,26.2,60.2,11.9,48.5,11.9z"/>
<path class="st0" d="M164.6,13c-13.2,0-23.9,14.4-23.9,32.1c0,11.4,4.5,21.5,11.2,27.2c-2.4-3.8-3.8-8.8-3.8-14.1
	c0-12.3,7.4-22.2,16.6-22.2c9.1,0,16.6,9.9,16.6,22.2c0,5.4-1.4,10.3-3.8,14.1c6.7-5.7,11.2-15.7,11.2-27.2
	C188.5,27.4,177.8,13,164.6,13z"/>
<path class="st0" d="M105.1,73.4c-17.9,0-32.5-14.6-32.5-32.5c0-10.8,5.3-20.4,13.4-26.3c-4.8,4.8-7.8,11.5-7.8,18.9
	c0,14.8,12,26.8,26.8,26.8c14.8,0,26.8-12,26.8-26.8c0-7.4-3-14-7.8-18.9c8.1,5.9,13.4,15.5,13.4,26.3
	C137.6,58.8,123.1,73.4,105.1,73.4z"/>
<path class="st2" d="M105.1,60.3c-14.8,0-26.8-12-26.8-26.8c0-8.9,4.4-16.8,11-21.7c-3.9,4-6.4,9.5-6.4,15.5
	c0,12.2,9.9,22.1,22.1,22.1c12.2,0,22.1-9.9,22.1-22.1c0-6.1-2.4-11.5-6.4-15.5c6.7,4.9,11,12.8,11,21.7
	C131.9,48.3,119.9,60.3,105.1,60.3z"/>
<path class="st0" d="M266.3,69.1c4.2,0,8.1-1.6,11.3-4.4c-4.6,6.5-11.3,10.5-18.8,10.5c-13.8,0-25-13.9-25-31.1c0-0.1,0-0.3,0-0.4
	c0.1-6,1.5-11.6,3.9-16.4c0,0,0,0,0,0C242.2,18.7,250,13,258.8,13c8,0,15.1,4.7,19.7,11.9c-3.4-3.3-7.6-5.2-12.2-5.2
	c-9.9,0-18.1,9-19.6,20.8c-0.2,1.3-0.2,2.6-0.2,3.9c0,3,0.4,5.9,1.2,8.6C250.5,62.4,257.8,69.1,266.3,69.1z"/>
<path class="st0" d="M305.3,13.9c-4.8,3.9-8.3,14.2-8.3,26.3c0,15.5,4.5,24.7,8,25.5c2.4,0.6,5.1,0.2,7.2-2.9
	c-2.9,7.3-7.2,11.9-11.9,11.9c-8.8,0-15.9-15.8-15.9-35.3c0-19.5,7.1-35.3,15.9-35.3c0.1,0,0.2,0,0.4,0L305.3,13.9z"/>
</svg>
